<?xml version="1.0" encoding="utf-8"?>
<!-- Generator: Adobe Adobe Illustrator 24.2.0, SVG Export Plug-In . SVG Version: 6.00 Build 0)  -->
<svg version="1.1" xmlns="http://www.w3.org/2000/svg" xmlns:xlink="http://www.w3.org/1999/xlink" x="0px" y="0px"
	 viewBox="0 0 1920 1080" style="enable-background:new 0 0 1920 1080;" xml:space="preserve">
<style type="text/css">
	.st0{fill:#282A42;}
	.st1{fill:#282A42;stroke:#3340CC;stroke-miterlimit:10;}
	.st2{fill:#3340CC;}
	.st3{opacity:0.251;}
	.st4{fill:#294ED6;}
	.st5{fill:#294ED6;stroke:#3340CC;stroke-miterlimit:10;stroke-dasharray:12,12,12,12,12,12;}
	.st6{fill:#3340CC;stroke:#3340CC;stroke-miterlimit:10;stroke-dasharray:12,12,12,12,12,12;}
	.st7{fill:#68F037;stroke:#3340CC;stroke-miterlimit:10;}
	.st8{fill:#68F037;}
	.st9{fill:none;}
	.st10{fill:#37ACF0;}
	.st11{fill:#24D467;}
	.st12{fill:#FFFFFF;stroke:#FFFFFF;stroke-miterlimit:10;}
	.st13{fill:#FFFFFF;}
</style>
<g id="Ebene_2">
	<g class="st3">
		<ellipse class="st4" cx="962.75" cy="552.25" rx="450.29" ry="438.31"/>
		<path class="st2" d="M962.75,991.25c-120.47,0-233.72-45.66-318.9-128.58s-132.1-193.16-132.1-310.42
			c0-117.26,46.91-227.5,132.1-310.42s198.44-128.58,318.9-128.58c120.47,0,233.72,45.66,318.91,128.58
			c85.18,82.92,132.09,193.16,132.09,310.42c0,117.26-46.91,227.5-132.09,310.42C1196.47,945.59,1083.22,991.25,962.75,991.25z
			 M962.75,114.62c-120.09,0-232.99,45.52-317.91,128.18S513.16,435.36,513.16,552.25s46.77,226.79,131.68,309.45
			c84.92,82.66,197.82,128.18,317.91,128.18s232.99-45.52,317.91-128.18c84.92-82.66,131.68-192.55,131.68-309.45
			s-46.77-226.79-131.68-309.45C1195.74,160.15,1082.84,114.62,962.75,114.62z"/>
	</g>
	<g class="st3">
		<ellipse class="st5" cx="962.75" cy="552.25" rx="373.91" ry="359.94"/>
		<path class="st6" d="M962.75,912.75c-100.03,0-194.08-37.5-264.81-105.59S588.25,648.54,588.25,552.25
			c0-96.29,38.95-186.82,109.69-254.91s164.78-105.59,264.81-105.59c100.03,0,194.08,37.5,264.81,105.59
			c70.73,68.09,109.69,158.62,109.69,254.91c0,96.29-38.95,186.82-109.69,254.91C1156.83,875.25,1062.78,912.75,962.75,912.75z
			 M962.75,192.88c-99.72,0-193.47,37.38-263.98,105.26S589.42,456.26,589.42,552.25s38.83,186.24,109.35,254.11
			c70.51,67.88,164.26,105.26,263.98,105.26s193.47-37.38,263.98-105.26c70.51-67.88,109.34-158.12,109.34-254.11
			s-38.83-186.24-109.34-254.11C1156.22,230.26,1062.47,192.88,962.75,192.88z"/>
	</g>
</g>
<g id="Ebene_3">
	<g>
		<path class="st4" d="M967.92,379.42c-19.61,0-35.5-15.89-35.5-35.5v0c0-19.61,15.89-35.5,35.5-35.5h199.74
			c-57.31-48.32-129.08-74.67-204.91-74.67c-85.07,0-165.06,33.13-225.21,93.29c-59.51,59.51-92.55,138.42-93.25,222.46h212.83
			c19.61,0,35.5,15.89,35.5,35.5v0c0,19.61-15.89,35.5-35.5,35.5h-74.62V641h114.12c15.74,0,28.5,12.76,28.5,28.5v2
			c0,15.74-12.76,28.5-28.5,28.5h-150c-15.74,0-28.5-12.76-28.5-28.5v-2c0-15.74,12.76-28.5,28.5-28.5h17.5v-20.5H651.55
			c12.82,59.02,42.25,113.23,85.98,156.96c60.16,60.16,140.14,93.29,225.21,93.29c76.66,0,149.18-26.91,206.79-76.25h-168.93
			c-15.74,0-28.5-12.76-28.5-28.5v-2c0-15.74,12.76-28.5,28.5-28.5h222.74c31.33-44.36,50.62-95.77,56.2-150.17
			c-0.7,0.05-1.41,0.09-2.13,0.09h-231c-15.74,0-28.5-12.76-28.5-28.5v-2c0-15.74,12.76-28.5,28.5-28.5h231
			c0.94,0,1.88,0.05,2.8,0.14c-4.22-53.26-21.55-103.85-50.42-148.03c-2.54,0.57-5.17,0.89-7.88,0.89H967.92z M872.11,420.5
			c0,15.74-12.76,28.5-28.5,28.5h-102c-15.74,0-28.5-12.76-28.5-28.5v-2c0-15.74,12.76-28.5,28.5-28.5h102
			c15.74,0,28.5,12.76,28.5,28.5V420.5z M1094.92,649c0-15.74,12.76-28.5,28.5-28.5h77c15.74,0,28.5,12.76,28.5,28.5v2
			c0,15.74-12.76,28.5-28.5,28.5h-77c-15.74,0-28.5-12.76-28.5-28.5V649z M1116.11,430.42c0,15.74-12.76,28.5-28.5,28.5h-102
			c-15.74,0-28.5-12.76-28.5-28.5v-2c0-15.74,12.76-28.5,28.5-28.5h102c15.74,0,28.5,12.76,28.5,28.5V430.42z"/>
		<path class="st2" d="M1280.72,526.62c0.17,0.02,0.34,0.04,0.51,0.06c-4.2-53.38-21.52-104.09-50.4-148.4
			c-0.19,0.05-0.39,0.09-0.58,0.14C1258.43,421.7,1276.4,472.24,1280.72,526.62z"/>
		<path class="st2" d="M962.75,871.25c-152.75,0-280.4-107.37-311.66-250.75h-0.56c12.84,59.29,42.38,113.75,86.3,157.67
			c60.35,60.35,140.58,93.58,225.92,93.58c77.3,0,150.41-27.27,208.35-77.25h-0.81C1114.5,842.34,1042,871.25,962.75,871.25z"/>
		<path class="st2" d="M1223.88,735.5h0.69c31.23-44.42,50.45-95.85,55.99-150.25c-0.17,0.02-0.34,0.04-0.51,0.05
			C1274.34,640.83,1254.37,692.13,1223.88,735.5z"/>
		<path class="st2" d="M962.75,233.25c78.37,0,150.13,28.28,205.66,75.17h0.8c-57.63-48.96-129.99-75.67-206.46-75.67
			c-85.34,0-165.57,33.23-225.92,93.58c-59.7,59.7-92.84,138.86-93.55,223.17h0.5C645.26,374.59,787.49,233.25,962.75,233.25z"/>
		<path class="st2" d="M962.75,870.75c-85.07,0-165.06-33.13-225.21-93.29c-43.73-43.73-73.16-97.94-85.98-156.96h-0.46
			C682.35,763.88,810,871.25,962.75,871.25c79.25,0,151.75-28.91,207.53-76.75h-0.74C1111.93,843.84,1039.41,870.75,962.75,870.75z"
			/>
		<path class="st2" d="M1223.35,735.5h0.53c30.49-43.37,50.46-94.67,56.18-150.2c-0.17,0.02-0.34,0.03-0.5,0.04
			C1273.97,639.73,1254.68,691.14,1223.35,735.5z"/>
		<path class="st2" d="M737.54,327.04c60.16-60.16,140.14-93.29,225.21-93.29c75.83,0,147.6,26.34,204.91,74.67h0.75
			c-55.53-46.89-127.29-75.17-205.66-75.17c-175.26,0-317.49,141.34-318.97,316.25h0.5C644.99,465.45,678.03,386.54,737.54,327.04z"
			/>
		<path class="st2" d="M1229.8,378.53c28.87,44.18,46.2,94.78,50.42,148.03c0.17,0.02,0.34,0.04,0.51,0.06
			c-4.32-54.38-22.29-104.92-50.47-148.2C1230.1,378.46,1229.95,378.49,1229.8,378.53z"/>
		<path class="st7" d="M1167.66,308.42H967.92c-19.61,0-35.5,15.89-35.5,35.5v0c0,19.61,15.89,35.5,35.5,35.5h254
			c2.71,0,5.34-0.31,7.88-0.89c-12-18.36-25.96-35.62-41.83-51.49C1181.43,320.5,1174.65,314.31,1167.66,308.42z"/>
		<path class="st7" d="M1230.25,378.42c0.19-0.05,0.39-0.09,0.58-0.14c-12.08-18.53-26.16-35.95-42.16-51.96
			c-6.27-6.27-12.77-12.23-19.46-17.91h-0.8C1192.28,328.57,1213.15,352.15,1230.25,378.42z"/>
		<path class="st7" d="M1187.96,327.04c15.87,15.87,29.84,33.13,41.83,51.49c0.15-0.03,0.3-0.07,0.45-0.1
			c-17.1-26.27-37.97-49.86-61.84-70.01h-0.75C1174.65,314.31,1181.43,320.5,1187.96,327.04z"/>
		<path class="st7" d="M1087.61,399.92h-102c-15.74,0-28.5,12.76-28.5,28.5v2c0,15.74,12.76,28.5,28.5,28.5h102
			c15.74,0,28.5-12.76,28.5-28.5v-2C1116.11,412.68,1103.35,399.92,1087.61,399.92z"/>
		<path class="st7" d="M843.61,390h-102c-15.74,0-28.5,12.76-28.5,28.5v2c0,15.74,12.76,28.5,28.5,28.5h102
			c15.74,0,28.5-12.76,28.5-28.5v-2C872.11,402.76,859.35,390,843.61,390z"/>
		<path class="st7" d="M1123.42,679.5h77c15.74,0,28.5-12.76,28.5-28.5v-2c0-15.74-12.76-28.5-28.5-28.5h-77
			c-15.74,0-28.5,12.76-28.5,28.5v2C1094.92,666.74,1107.68,679.5,1123.42,679.5z"/>
		<path class="st7" d="M972.11,764v2c0,15.74,12.76,28.5,28.5,28.5h168.93c6.32-5.41,12.47-11.09,18.42-17.04
			c13.1-13.1,24.91-27.14,35.38-41.96h-222.74C984.87,735.5,972.11,748.26,972.11,764z"/>
		<path class="st7" d="M1170.28,794.5h0.81c6.03-5.2,11.89-10.64,17.58-16.33c13.31-13.31,25.29-27.59,35.9-42.67h-0.69
			C1208.52,757.34,1190.5,777.16,1170.28,794.5z"/>
		<path class="st7" d="M1187.96,777.46c-5.95,5.95-12.1,11.62-18.42,17.04h0.74c20.22-17.34,38.24-37.16,53.59-59h-0.53
			C1212.88,750.33,1201.06,764.37,1187.96,777.46z"/>
		<path class="st7" d="M1046.42,526.42c-15.74,0-28.5,12.76-28.5,28.5v2c0,15.74,12.76,28.5,28.5,28.5h231
			c0.72,0,1.43-0.04,2.13-0.09c1.12-10.92,1.7-21.96,1.7-33.08c0-8.62-0.36-17.19-1.03-25.69c-0.92-0.09-1.85-0.14-2.8-0.14H1046.42
			z"/>
		<path class="st7" d="M1281.23,526.68c-0.17-0.02-0.34-0.05-0.51-0.06c0.67,8.46,1.03,17,1.03,25.63c0,11.16-0.58,22.18-1.7,33.05
			c0.17-0.02,0.34-0.03,0.51-0.05c1.11-10.89,1.69-21.9,1.69-33C1282.25,543.67,1281.9,535.15,1281.23,526.68z"/>
		<path class="st7" d="M764.11,651.92V641h-17.5c-15.74,0-28.5,12.76-28.5,28.5v2c0,15.74,12.76,28.5,28.5,28.5h150
			c15.74,0,28.5-12.76,28.5-28.5v-2c0-15.74-12.76-28.5-28.5-28.5H782.49v10.92H764.11z"/>
		<path class="st7" d="M764.11,601.92h18.38v18.58h74.62c19.61,0,35.5-15.89,35.5-35.5v0c0-19.61-15.89-35.5-35.5-35.5H644.28
			c-0.01,0.92-0.03,1.83-0.03,2.75c0,23.23,2.49,46.08,7.3,68.25h112.55V601.92z"/>
		<path class="st7" d="M643.75,552.25c0-0.92,0.03-1.83,0.03-2.75h-0.5c-0.01,0.92-0.03,1.83-0.03,2.75
			c0,23.23,2.48,46.08,7.28,68.25h0.56C646.3,598.51,643.75,575.68,643.75,552.25z"/>
		<path class="st7" d="M644.25,552.25c0-0.92,0.03-1.83,0.03-2.75h-0.5c-0.01,0.92-0.03,1.83-0.03,2.75
			c0,23.43,2.55,46.26,7.34,68.25h0.46C646.74,598.33,644.25,575.48,644.25,552.25z"/>
		<rect x="764.11" y="620.5" class="st7" width="18.38" height="20.5"/>
	</g>
	<path class="st8" d="M764.81,615.6c-3.49-3.8-9.14,1.87-5.66,5.66c6.02,6.54,2.44,14.14-1.16,20.93c-2.41,4.55,4.49,8.59,6.91,4.04
		C770.36,635.92,773.54,625.07,764.81,615.6z"/>
	<path class="st8" d="M791.43,614.93c-1.25,0.72-2.33,1.63-3.27,2.68c-1.41-2.11-5.11-2.94-7.04-0.14
		c-6.14,8.91-6.82,22.46,0.89,30.63c2.21,2.34,5.25,1.01,6.35-1.23c3.16,2.3,8.39-1.29,5.86-5.14c-3.14-4.78-4.36-16.64,1.25-19.88
		C799.92,619.26,795.9,612.35,791.43,614.93z"/>
	<path class="st8" d="M1083.61,372.93c-0.67,0.62-1.32,1.27-1.95,1.95c-1.23-0.82-2.8-0.93-4.24-0.18c-0.01,0-0.01,0.01-0.02,0.01
		c-1.21-2.07-4.05-3.19-6.12-0.9c-0.51,0.56-1,1.14-1.48,1.74c-1.38-0.83-3.16-0.88-4.6,0.66c-0.43,0.46-0.84,0.94-1.22,1.44
		c-0.32-0.8-0.86-1.5-1.58-1.95c-0.06-0.12-0.13-0.24-0.2-0.36c-2.84-4.48-8.6-1.56-11.67,1.59c-1.26-1.19-2.79-2.14-4.6-2.76
		c-0.62-0.21-1.19-0.27-1.72-0.21c-0.19-0.18-0.38-0.36-0.57-0.54c-3.81-3.45-9.48,2.19-5.66,5.66c3.37,3.05,6.13,6.44,5.6,11.28
		c-0.52,4.69-3.62,8.85-6.74,12.19c-3.51,3.76,2.14,9.43,5.66,5.66c0.51-0.55,1.02-1.12,1.51-1.7c1.06,0.17,2.2-0.14,3.17-1.22
		c0.83-0.92,1.63-1.81,2.4-2.7c0.49,0.97,1.38,1.73,2.51,2.19c2.61,1.05,4.47,0.34,6.03-1.04c0.85,0.03,1.69-0.19,2.38-0.66
		c1.2,1.36,3.08,1.42,4.57,0.69c0.63,1.24,1.33,2.51,2.04,3.87c1.71,3.26,5.71,2.12,6.99-0.46c1.42,1.06,3.04,1.02,4.34,0.39
		c3.5,2.42,8.21-2.75,4.94-6.28c-6.49-6.99,0.24-17.5,5.88-22.72C1093.05,375.08,1087.38,369.43,1083.61,372.93z"/>
	<path class="st9" d="M845.45,600.45"/>
	<path class="st9" d="M846.73,599.6"/>
	<path class="st9" d="M836.11,608.09"/>
	<path class="st9" d="M837.81,607.24"/>
	<path class="st9" d="M772.38,605.97"/>
	<path class="st9" d="M768.98,603.85c0.69,4.26,1.8,8.26,3.1,12.37c0.98,3.08,1.66,5.9,2.05,9.09c0.18,1.44,0.37,2.76,0.37,4.22
		c0,0.96-0.23,2.28,0.07,3.17c0.12,0.01,0.23,0.03,0.35,0.04"/>
	<path class="st8" d="M793.54,610.44c-2.85,3.26-6.34,6.88-8.75,10.89c0.07-0.84,0.13-1.68,0.16-2.52c0.27-0.41,0.45-0.9,0.49-1.5
		c0.29-4.33,1.79-10.49,0.28-14.66c-0.04-0.1-0.09-0.19-0.13-0.29c0.01-1.07-0.02-2.11-0.12-3.09c-0.28-2.82-3.97-4.26-5.59-1.51
		c-0.25,0.42-0.46,0.87-0.67,1.32c-0.38,0.02-0.76,0.13-1.14,0.28c-0.27-0.05-0.55-0.08-0.83-0.06c-0.34-0.24-0.71-0.41-1.11-0.51
		c-0.49-0.26-1.06-0.41-1.63-0.41c-0.78-1.02-2.21-1.15-3.42-0.65c-0.99-0.47-2.15-0.48-2.95,0.12c0.24-0.59,0.46-1.19,0.62-1.81
		c0.1-0.37-0.35-0.82-0.71-0.58c-0.13-0.4-0.62-0.51-0.89-0.14c-0.01,0.01-0.01,0.02-0.02,0.03c-0.19-0.27-0.64-0.28-0.82,0.02
		c-0.16,0.27-0.29,0.55-0.43,0.83c-0.15-0.02-0.31,0.02-0.42,0.13c-0.35,0.35-0.61,0.76-0.85,1.19c-0.17-0.4-0.86-0.5-0.94,0.03
		c-0.14,0.89-0.49,1.76-0.73,2.62c-0.4,0.77-0.87,1.51-1.08,2.32c-0.08,0.28,0.08,0.5,0.3,0.58c-0.23,0.91-0.49,1.87-0.67,2.84
		c-1.34,0.52-2.34,1.82-1.73,3.47c0.41,1.12,0.96,2.34,1.62,3.57c1.51,3.88,2.18,8.1,4.1,11.75c0.7,1.32,1.81,1.69,2.87,1.46
		c0.03,0.08,0.05,0.16,0.07,0.24c0.77,2.21,3.44,2.83,5.01,1.29c0.83,0.82,2.16,0.99,3.28,0.54c1.3,0.31,2.72-0.21,3.3-1.82
		c0.74,0.4,1.62,0.51,2.4,0.3c-0.16,0.6-0.29,1.2-0.38,1.81c-0.28,2.01-0.22,4.19,0,6.34c-0.46-0.15-0.95-0.2-1.43-0.12
		c-0.82-0.91-2.17-1.22-3.29-0.92c-0.23-0.41-0.56-0.77-0.94-1.05c-0.31-1.67-2.25-2.79-3.84-2.45c-1.26-0.82-2.93-0.76-3.87,1.04
		c-2.91,5.58-6,12.86-5.81,19.27c0.05,1.76,1.29,2.77,2.69,2.89c0.33,0.08,0.67,0.11,1,0.08c0.29,2.87,4.91,3.35,5.81,0.48
		c0.5,0.08,1.04,0.15,1.58,0.19c0.67,1,1.96,1.39,3.14,1.16c0.8,2.49,4.02,2.45,5.42,0.52c0.17-0.24,0.32-0.49,0.46-0.76
		c0.88-0.13,1.7-0.59,2.11-1.4c0.35-0.69,0.54-1.45,0.69-2.22c0.34-0.48,0.64-1,0.86-1.55c0.01,0.03,0.03,0.06,0.04,0.08
		c1.4,2.53,5.78,1.49,5.59-1.51c-0.12-1.92-1.02-3.31-1.82-4.93c-0.24-0.75-0.46-1.54-0.66-2.35c0.51-3.16,0.04-6.55-0.96-9.52
		c-0.18-0.55-0.46-0.97-0.78-1.3c0.67-6.27,5.66-11.2,9.72-15.84C800.31,611.79,796.09,607.53,793.54,610.44z"/>
</g>
<g id="Ebene_8">
</g>
<g id="Ebene_6">
	<path class="st10" d="M666.71,509.38L666.71,509.38c0-9.94,8.06-18,18-18h40.7c9.94,0,18,8.06,18,18v0c0,9.94-8.06,18-18,18h-40.7
		C674.77,527.38,666.71,519.32,666.71,509.38z"/>
	<path class="st10" d="M892.97,517.38L892.97,517.38c0-9.94,8.06-18,18-18h40.7c9.94,0,18,8.06,18,18v0c0,9.94-8.06,18-18,18h-40.7
		C901.02,535.38,892.97,527.32,892.97,517.38z"/>
	<path class="st10" d="M1073.93,706.88L1073.93,706.88c0-6.9,5.6-12.5,12.5-12.5h35c6.9,0,12.5,5.6,12.5,12.5v0
		c0,6.9-5.6,12.5-12.5,12.5h-35C1079.53,719.38,1073.93,713.78,1073.93,706.88z"/>
	<path class="st10" d="M797.41,327.81L797.41,327.81c0-10.99,8.91-19.9,19.9-19.9h49.2c10.99,0,19.9,8.91,19.9,19.9v0
		c0,10.99-8.91,19.9-19.9,19.9h-49.2C806.32,347.71,797.41,338.8,797.41,327.81z"/>
	<path class="st10" d="M807.41,788.36v-4.2c0-10.99,8.91-19.9,19.9-19.9h45.76c10.99,0,19.9,8.91,19.9,19.9v4.2
		c0,10.99-8.91,19.9-19.9,19.9h-45.76C816.32,808.25,807.41,799.35,807.41,788.36z"/>
	<path class="st10" d="M1116.93,456.36L1116.93,456.36c0-10.99,8.91-19.9,19.9-19.9h49.2c10.99,0,19.9,8.91,19.9,19.9v0
		c0,10.99-8.91,19.9-19.9,19.9h-49.2C1125.84,476.25,1116.93,467.35,1116.93,456.36z"/>
</g>
<g id="Ebene_5">
	<g>
		<path class="st11" d="M1079.93,338.96v-4c0-6.35-5.15-11.5-11.5-11.5h-90c-6.35,0-11.5,5.15-11.5,11.5v4
			c0,6.35,5.15,11.5,11.5,11.5h90C1074.78,350.46,1079.93,345.31,1079.93,338.96z"/>
		<path class="st11" d="M1161.43,551.5v-4c0-6.35-5.15-11.5-11.5-11.5h-90c-6.35,0-11.5,5.15-11.5,11.5v4
			c0,6.35,5.15,11.5,11.5,11.5h90C1156.28,563,1161.43,557.85,1161.43,551.5z"/>
		<path class="st11" d="M728.44,571.46h-70.89c-5,0-9.06,5.15-9.06,11.5v4c0,6.35,4.06,11.5,9.06,11.5h70.89
			c5,0,9.06-5.15,9.06-11.5v-4C737.5,576.61,733.44,571.46,728.44,571.46z"/>
		<path class="st11" d="M842.31,578.67h-55.75c-3.93,0-7.12,2.57-7.12,5.75v2c0,3.18,3.19,5.75,7.12,5.75h55.75
			c3.93,0,7.12-2.57,7.12-5.75v-2C849.43,581.25,846.24,578.67,842.31,578.67z"/>
		<path class="st11" d="M1135.93,741.46h-86c-6.35,0-11.5,5.15-11.5,11.5v4c0,6.35,5.15,11.5,11.5,11.5h86
			c6.35,0,11.5-5.15,11.5-11.5v-4C1147.43,746.61,1142.28,741.46,1135.93,741.46z"/>
		<path class="st11" d="M1104.93,428.96L1104.93,428.96c0-6.35-5.15-11.5-11.5-11.5h-66c-6.35,0-11.5,5.15-11.5,11.5v0
			c0,6.35,5.15,11.5,11.5,11.5h66C1099.78,440.46,1104.93,435.31,1104.93,428.96z"/>
		<path class="st11" d="M833.93,661.46h-66c-6.35,0-11.5,5.15-11.5,11.5v0c0,6.35,5.15,11.5,11.5,11.5h66
			c6.35,0,11.5-5.15,11.5-11.5l0,0C845.43,666.61,840.28,661.46,833.93,661.46z"/>
	</g>
	<path class="st11" d="M771.53,603.12c-0.39,0-0.39,0.6,0,0.6C771.92,603.72,771.92,603.12,771.53,603.12z"/>
	<path class="st11" d="M778.75,601c-0.39,0-0.39,0.6,0,0.6C779.14,601.6,779.14,601,778.75,601z"/>
</g>
<g id="Ebene_7">
	<path class="st12" d="M660.61,361.12L660.61,361.12c0-12.7,10.3-23,23-23h80.28c12.7,0,23,10.3,23,23v0c0,12.7-10.3,23-23,23
		h-80.28C670.91,384.12,660.61,373.82,660.61,361.12z"/>
	<path class="st12" d="M960,687.12L960,687.12c0-12.7,10.3-23,23-23h80.28c12.7,0,23,10.3,23,23v0c0,12.7-10.3,23-23,23H983
		C970.3,710.12,960,699.82,960,687.12z"/>
	<path class="st12" d="M1155.97,433.36L1155.97,433.36c0-12.7,10.3-23,23-23h80.28c12.7,0,23,10.3,23,23v0c0,12.7-10.3,23-23,23
		h-80.28C1166.27,456.36,1155.97,446.06,1155.97,433.36z"/>
	<path class="st12" d="M1194.97,585.42L1194.97,585.42c0-12.7,10.3-23,23-23h80.28c12.7,0,23,10.3,23,23l0,0c0,12.7-10.3,23-23,23
		h-80.28C1205.27,608.42,1194.97,598.12,1194.97,585.42z"/>
	<path class="st12" d="M870.55,537.88v-5c0-6.35,5.15-11.5,11.5-11.5h45.35c6.35,0,11.5,5.15,11.5,11.5v5
		c0,6.35-5.15,11.5-11.5,11.5h-45.35C875.7,549.38,870.55,544.23,870.55,537.88z"/>
	<path class="st12" d="M1184.94,633.78v-5c0-6.35,5.15-11.5,11.5-11.5h45.35c6.35,0,11.5,5.15,11.5,11.5v5
		c0,6.35-5.15,11.5-11.5,11.5h-45.35C1190.08,645.28,1184.94,640.13,1184.94,633.78z"/>
	<path class="st12" d="M747.02,784.96v-5c0-6.35,5.15-11.5,11.5-11.5h45.35c6.35,0,11.5,5.15,11.5,11.5v5
		c0,6.35-5.15,11.5-11.5,11.5h-45.35C752.17,796.46,747.02,791.31,747.02,784.96z"/>
	<path class="st12" d="M936.84,266.25L936.84,266.25c0-12.7,10.3-23,23-23h80.28c12.7,0,23,10.3,23,23v0c0,12.7-10.3,23-23,23
		h-80.28C947.14,289.25,936.84,278.95,936.84,266.25z"/>
	<path class="st12" d="M680.27,738.36L680.27,738.36c0-12.7,10.3-23,23-23h80.28c12.7,0,23,10.3,23,23v0c0,12.7-10.3,23-23,23
		h-80.28C690.56,761.36,680.27,751.06,680.27,738.36z"/>
	<path class="st12" d="M807.41,491.38L807.41,491.38c0-12.7,10.3-23,23-23h80.28c12.7,0,23,10.3,23,23v0c0,12.7-10.3,23-23,23
		h-80.28C817.7,514.38,807.41,504.08,807.41,491.38z"/>
	<path class="st13" d="M768.17,747.71c-3.1,0-3.11,4.83,0,4.83C771.27,752.53,771.28,747.71,768.17,747.71z"/>
	<path class="st13" d="M772.31,761.71c0.14-0.12,0.17-0.26,0.15-0.4c0.32-0.07,0.31-0.58-0.05-0.58c-0.14,0-0.21,0.09-0.25,0.19
		c-0.17-0.08-0.37-0.08-0.55,0.08c-0.16,0.14-0.3,0.28-0.43,0.44c-0.2-0.24-0.62-0.31-0.81,0.05c-0.07,0.13-0.11,0.26-0.17,0.39
		c-0.02-0.11-0.02-0.22-0.06-0.32c-0.1-0.3-0.43-0.43-0.68-0.32c-0.01-0.03-0.01-0.06-0.02-0.09c-0.14-0.34-0.7-0.5-0.9-0.18
		c0-0.09,0-0.18-0.01-0.28c-0.03-0.48-0.67-0.7-0.93-0.25c-0.01,0.02-0.02,0.04-0.03,0.07c-0.14-0.01-0.27,0.03-0.38,0.11
		c-0.01-0.14-0.02-0.28-0.05-0.43c-0.1-0.49-0.85-0.46-0.96,0c-0.04,0.15-0.05,0.29-0.07,0.44c-0.1-0.03-0.22-0.03-0.33,0.04
		c-0.01-0.24-0.02-0.48-0.02-0.72c0-0.57-0.82-0.67-0.98-0.13c-0.1,0.35-0.13,0.72-0.16,1.09c-0.24-0.36-0.47-0.71-0.81-1.01
		c-0.49-0.42-1.2,0.29-0.71,0.71c0.31,0.26,0.5,0.57,0.73,0.9c0.01,0.02,0.03,0.03,0.04,0.05c-0.22,0.13-0.36,0.39-0.2,0.68
		c0.34,0.63,0.44,1.2,0.45,1.91c0,0.64,0.02,1.23-0.18,1.85c-0.18,0.54-0.45,1.02-0.79,1.47c-0.16,0.21-0.22,0.47-0.37,0.69
		c-0.15,0.22-0.33,0.36-0.41,0.63c-0.1,0.34,0.17,0.6,0.48,0.63c0.5,0.06,0.98-0.62,1.27-0.98c0.12,0.04,0.25,0.05,0.38-0.04
		c0.03-0.02,0.05-0.04,0.08-0.06c-0.07,0.22-0.11,0.44-0.05,0.67c0.08,0.3,0.37,0.39,0.61,0.32c0.21,0.23,0.6,0.28,0.77-0.08
		c0.1-0.22,0.23-0.42,0.35-0.63c0,0.01,0,0.03,0.01,0.04c0.02,0.07,0.07,0.13,0.12,0.18c-0.02,0.23,0,0.47,0.15,0.67
		c0.02,0.03,0.05,0.05,0.08,0.07c0.08,0.57,0.97,0.55,0.99-0.07c0-0.06,0.01-0.13,0.02-0.19c0.25,0.18,0.71,0.08,0.78-0.24
		c0,0.34,0,0.68,0,1.02c0,0.64,0.99,0.64,1,0c0-0.53,0.04-1.06,0.07-1.59c0.17-0.02,0.33-0.12,0.4-0.29
		c0.08,0.15,0.16,0.3,0.26,0.43c0.1,0.14,0.38,0.43,0.41,0.56c0.08,0.39,0.48,0.43,0.74,0.27c0.15,0.19,0.3,0.37,0.48,0.53
		c0.47,0.44,1.18-0.27,0.71-0.71c-0.23-0.22-0.4-0.49-0.62-0.72c-0.25-0.26-0.47-0.51-0.64-0.83c-0.37-0.65-0.37-1.37-0.31-2.1
		C770.98,764.28,771.22,762.66,772.31,761.71z"/>
	<path class="st13" d="M1232.96,613.25c0.1-0.88,0.33-1.79,0.64-2.62c0.15-0.39,0.4-0.72,0.63-1.07c0.27-0.42,0.52-0.84,0.81-1.24
		c0.38-0.52-0.49-1.02-0.86-0.5c-0.19,0.26-0.38,0.53-0.58,0.81c-0.01-0.05-0.04-0.1-0.05-0.15c0.02-0.05,0.05-0.09,0.07-0.14
		c0.21-0.51-0.47-0.74-0.81-0.5c-0.06-0.09-0.15-0.16-0.25-0.21c0.03-0.34,0.06-0.69,0.08-1.03c0.03-0.62,0.1-1.28,0.03-1.91
		c0.1-0.21,0.2-0.43,0.28-0.65c0.07-0.19-0.05-0.48-0.23-0.56c-0.47-0.23-0.86-0.04-1.18,0.28c-0.12,0-0.24,0.03-0.34,0.13
		c-0.1,0.1-0.19,0.22-0.28,0.33c0.11-0.29,0.19-0.58,0.24-0.89c0.06-0.41-0.32-0.8-0.73-0.56c-0.47,0.27-0.79,0.69-1.09,1.13
		c-0.23,0.33-0.47,0.66-0.7,0.99c-0.14-0.29-0.56-0.44-0.8-0.15c-0.37,0.44-0.68,0.96-0.96,1.49c-0.02-0.22-0.03-0.44-0.07-0.66
		c-0.03-0.2-0.18-0.31-0.35-0.34c0.06-0.19,0.13-0.37,0.19-0.56c0.24-0.55,0.43-1.36-0.27-1.61c-0.22-0.08-0.45,0.06-0.56,0.23
		c-0.35,0.52-0.53,1.13-0.69,1.75c-0.16-0.01-0.32,0.06-0.44,0.24c-0.31,0.5-0.39,1.09-0.52,1.66c-0.01,0.03-0.02,0.05-0.03,0.08
		c-0.02,0.07-0.04,0.15-0.06,0.22c-0.12-0.01-0.23,0-0.33,0.05c-0.05,0.03-0.08,0.06-0.12,0.1c-0.2-0.18-0.43-0.16-0.6-0.05
		c-0.01-0.01-0.03-0.02-0.04-0.02c-0.17-0.45-0.96-0.39-0.97,0.18c0,0.06-0.01,0.12-0.02,0.18c-0.03-0.01-0.06-0.02-0.09-0.03
		c0-0.04-0.01-0.08-0.01-0.12c-0.01-0.64-1-0.64-1,0c0,0.37,0.02,0.73,0.03,1.1c-0.09-0.26-0.19-0.52-0.28-0.79
		c-0.21-0.61-1.17-0.35-0.96,0.27c0.29,0.84,0.65,1.58,0.71,2.48c0.05,0.82,0.13,1.75-0.03,2.56c-0.18,0.89-0.41,1.68-0.88,2.46
		c-0.19,0.31-0.28,0.67-0.5,0.96c-0.22,0.3-0.39,0.53-0.43,0.91c-0.06,0.64,0.94,0.64,1,0c0.01-0.14,0.22-0.3,0.3-0.41
		c0.03-0.04,0.04-0.09,0.07-0.13c-0.05,0.16-0.09,0.32-0.12,0.49c-0.23,0.47-0.46,0.94-0.67,1.41c-0.14,0.3,0.07,0.66,0.33,0.75
		c0.1,0.37,0.71,0.55,0.92,0.13c0.06-0.13,0.12-0.25,0.18-0.38c0.05,0.16,0.17,0.29,0.33,0.34c-0.12,0.25-0.21,0.51-0.25,0.78
		c-0.07,0.48,0.44,0.84,0.84,0.49c0.48-0.43,0.87-0.97,1.23-1.54c0.04,0.01,0.09,0.02,0.14,0.02c-0.15,0.41-0.23,0.83-0.1,1.26
		c0.04,0.15,0.17,0.26,0.32,0.32c-0.15,0.42-0.29,0.84-0.41,1.27c-0.14,0.52,0.46,0.78,0.84,0.49c0.4-0.32,0.66-0.77,0.9-1.22
		c0.32-0.59,0.67-1.15,1.01-1.72c0.18-0.3,0.37-0.58,0.55-0.88c-0.03,0.16-0.06,0.33-0.08,0.49c-0.03,0.23,0.16,0.4,0.37,0.46
		c-0.26,0.55-0.53,1.1-0.79,1.65c-0.22,0.48,0.39,1.07,0.79,0.61c0.03-0.03,0.05-0.07,0.08-0.1c0,0,0,0,0,0c0,0,0-0.01,0.01-0.01
		c0.48-0.6,0.85-1.28,1.19-1.98c-0.07,0.59-0.11,1.17-0.08,1.76c0.02,0.46,0.52,0.62,0.85,0.35c0.38-0.31,0.53-0.76,0.72-1.2
		c0.24-0.55,0.42-1.13,0.59-1.71c0.18-0.58,0.33-1.16,0.47-1.75c-0.12,1.36-0.32,2.73-0.13,4.09c0.05,0.36,0.61,0.49,0.84,0.22
		c0.08-0.1,0.13-0.2,0.18-0.3c0.23,0.11,0.54,0.08,0.65-0.18c0.65-1.47,0.47-3.01,0.44-4.58c0.03-0.02,0.06-0.04,0.09-0.06
		c0.32,0.84,0.82,1.66,1.4,2.33c0.42,0.49,1.13-0.22,0.71-0.71c-0.56-0.64-1.17-1.57-1.33-2.42c-0.08-0.4-0.02-0.82-0.01-1.22
		C1232.89,614.22,1232.91,613.73,1232.96,613.25z"/>
	<path class="st13" d="M908.47,518.45c0.17-0.6,0.37-1.19,0.54-1.79c0.2-0.7,0.44-1.51,0.39-2.28c0.13-0.32,0.27-0.64,0.44-0.95
		c0.18-0.33-0.04-0.63-0.32-0.72c-0.02-0.1-0.05-0.2-0.09-0.3c-0.06-0.15-0.19-0.27-0.34-0.33c0.21-0.69,0.27-1.4-0.21-1.79
		c-0.09-0.4-0.61-0.58-0.85-0.28c0-0.01,0-0.03,0-0.04c-0.01-0.29-0.29-0.53-0.57-0.49c0.05-0.29,0.03-0.58-0.14-0.84
		c-0.05-0.07-0.11-0.12-0.19-0.17c0.02-0.02,0.04-0.04,0.07-0.07c0.4-0.38-0.14-1.13-0.61-0.79c-0.03,0.03-0.06,0.06-0.1,0.08
		c0,0,0,0,0,0c-0.02,0.01-0.03,0.03-0.05,0.04c-0.72,0.56-1.33,1.22-1.93,1.91c-0.5,0.51-1.01,1.01-1.51,1.51
		c-0.01,0.01-0.03,0.01-0.04,0.02c-0.11,0.08-0.2,0.17-0.3,0.26c-0.02-0.02-0.04-0.03-0.07-0.04c0.3-0.43,0.56-0.89,0.77-1.37
		c0.05-0.08,0.1-0.15,0.15-0.23c0.38-0.62,1.04-1.5,0.78-2.27c-0.09-0.27-0.34-0.41-0.62-0.35c-1.05,0.21-1.83,1.22-2.47,2
		c-0.08,0.1-0.15,0.19-0.23,0.29c-0.06,0.01-0.12,0.02-0.18,0.05c-0.07,0.03-0.13,0.08-0.2,0.12c-0.04-0.05-0.08-0.1-0.14-0.13
		c0.09-0.37-0.26-0.73-0.6-0.62c0.48-0.83,0.95-1.7,0.85-2.67c-0.03-0.32-0.29-0.58-0.63-0.48c-0.59,0.17-0.97,0.8-1.28,1.3
		c-0.45,0.73-0.87,1.48-1.3,2.22c-0.3,0.53-0.6,1.07-0.88,1.61c-0.51,0.71-0.97,1.46-1.43,2.2c-0.28,0.45-0.57,0.9-0.87,1.35
		c0.01-0.27,0.01-0.55,0.03-0.83c0.03-0.63,0.16-1.4-0.28-1.93c-0.99-1.18-1.74,0.94-2.11,2.42c-0.17-0.57-0.39-1.11-0.65-1.65
		c-0.05-0.11-0.07-0.22-0.13-0.33c-0.03-0.06-0.07-0.11-0.11-0.14c-0.03-0.07-0.07-0.13-0.1-0.2c-0.31-0.58-0.6-1.42-1.37-1.47
		c-0.21-0.01-0.43,0.16-0.48,0.37c-0.15,0.59,0.22,1.05,0.38,1.6c0.1,0.34,0.18,0.69,0.27,1.04c-0.01,0.06-0.01,0.12,0.01,0.19
		c0.23,0.92,0.43,1.85,0.48,2.79c0.05,0.86,0.1,1.78,0.03,2.64c-0.04,0.43-0.18,0.82-0.31,1.24c-0.12,0.41-0.23,0.83-0.4,1.22
		c-0.16,0.36-0.35,0.69-0.55,1.03c-0.08,0.14-0.16,0.28-0.21,0.43c-0.03,0.09-0.04,0.37-0.1,0.44c-0.45,0.46,0.26,1.17,0.71,0.71
		c0.27-0.28,0.22-0.55,0.37-0.89c0.16-0.38,0.43-0.72,0.61-1.1c0,0,0-0.01,0.01-0.01c0.11,0.02,0.23,0.01,0.33-0.03
		c0.03-0.01,0.05-0.04,0.08-0.05c-0.05,0.18-0.09,0.37-0.14,0.55c-0.21,0.71-0.55,1.38-0.36,2.14c0.09,0.36,0.58,0.49,0.84,0.22
		c0.34-0.35,0.51-0.78,0.65-1.22c0,0.18,0.01,0.37,0.01,0.55c0,0.62,0.92,0.64,0.99,0.06c0.08,0.66,0.21,1.31,0.4,1.96
		c0.18,0.62,1.15,0.35,0.96-0.27c-0.08-0.27-0.15-0.55-0.21-0.83c0.03-0.02,0.05-0.03,0.08-0.06c0.54-0.6,0.88-1.44,1.27-2.15
		c0.15-0.27,0.28-0.53,0.41-0.8c0.07,0.09,0.18,0.16,0.28,0.2c0.06,0.02,0.11,0.02,0.16,0.03c-0.07,0.14-0.14,0.27-0.2,0.41
		c-0.17,0.46,0.52,0.86,0.84,0.49c0.37-0.42,0.72-0.86,1.07-1.29c-0.06,0.15-0.13,0.29-0.18,0.44c-0.14,0.37,0.21,0.63,0.53,0.61
		c-0.09,0.12-0.18,0.23-0.27,0.35c-0.62,0.8-1.14,1.68-1.77,2.46c-0.4,0.49,0.27,1.2,0.71,0.71c0.71-0.8,1.38-1.62,2.04-2.46
		c0.09,0.06,0.2,0.08,0.3,0.08c-0.55,0.84-1.08,1.7-1.48,2.61c-0.01,0.01-0.02,0.02-0.02,0.03l0.01,0
		c-0.02,0.04-0.04,0.08-0.06,0.12c-0.23,0.54,0.63,0.85,0.91,0.39c0.25-0.4,0.53-0.78,0.81-1.16c0.1,0.12,0.25,0.19,0.39,0.19
		c0.65,0,1.09-0.45,1.42-0.96c0.04,0.07,0.07,0.13,0.12,0.2c0.18,0.24,0.46,0.17,0.66,0.01c0.01,0.14,0.02,0.28,0.07,0.43
		c-0.18,0.29-0.35,0.58-0.51,0.88c-0.29,0.58-0.55,1.16-0.94,1.68c-0.38,0.52,0.49,1.02,0.86,0.5c0.36-0.5,0.62-1.04,0.89-1.59
		c0.28-0.57,0.63-1.09,0.97-1.63c0.01-0.01,0.01-0.02,0.02-0.03c0.11,0.06,0.22,0.07,0.34,0.05c0.26,0.57,0.53,1.13,0.85,1.67
		c0.33,0.55,1.19,0.05,0.86-0.5c-0.11-0.19-0.2-0.38-0.3-0.58c0.04-0.09,0.06-0.2,0.01-0.33c-0.27-0.75-0.53-1.5-0.77-2.25
		c0.01-0.04,0.03-0.07,0.05-0.1c0.17,0.22,0.56,0.27,0.75,0.05c0.34-0.38,0.48-0.84,0.59-1.33c0.09,0.07,0.2,0.09,0.32,0.08
		c-0.08,0.51-0.13,1.03-0.09,1.56c0.03,0.35,0.41,0.66,0.75,0.43c0.55-0.37,0.57-1.26,0.59-1.91c0.08,0.26,0.17,0.53,0.29,0.8
		c0.33,0.72,0.72,1.66,1.53,1.93c0.61,0.21,0.87-0.76,0.27-0.96c-0.51-0.17-0.92-1.39-1.09-1.85c-0.3-0.81-0.29-1.66-0.22-2.51
		C908.27,519.37,908.39,518.72,908.47,518.45z"/>
	<path class="st13" d="M1343.37,268.27c-0.39,0-0.39,0.6,0,0.6C1343.76,268.88,1343.76,268.27,1343.37,268.27z"/>
</g>
<g id="Ebene_4">
</g>
</svg>
