<?xml version="1.0" encoding="utf-8"?>
<!-- Generator: Adobe Adobe Illustrator 24.2.0, SVG Export Plug-In . SVG Version: 6.00 Build 0)  -->
<svg version="1.1" xmlns="http://www.w3.org/2000/svg" xmlns:xlink="http://www.w3.org/1999/xlink" x="0px" y="0px"
	 viewBox="0 0 1920 1080" width="3840" height="2160" style="enable-background:new 0 0 1920 1080;" xml:space="preserve">
<style type="text/css">
	.st0{display:none;}
	.st1{fill:#2A358E;}
	.st2{fill:#43CC31;stroke:#0BB02C;stroke-miterlimit:10;}
	.st3{fill:#43CC31;stroke:#0BB02C;stroke-width:8;stroke-miterlimit:10;}
	.st4{fill:#372C75;}
	.st5{fill:#F3FA2D;stroke:#FCD247;stroke-width:9;stroke-miterlimit:10;}
	.st6{fill:#60E9F0;stroke:#2795CC;stroke-width:6;stroke-miterlimit:10;}
	.st7{fill:#60E9F0;stroke:#2795CC;stroke-width:3;stroke-miterlimit:10;}
	.st8{fill:#60E9F0;stroke:#276FB3;stroke-width:4;stroke-miterlimit:10;}
	.st9{fill:#60E9F0;stroke:#2795CC;stroke-width:5;stroke-miterlimit:10;}
	.st10{fill:#49C7ED;stroke:#2795CC;stroke-width:4;stroke-miterlimit:10;}
	.st11{fill:#60E9F0;stroke:#2795CC;stroke-width:4;stroke-miterlimit:10;}
	.st12{fill:#60E9F0;stroke:#2795CC;stroke-miterlimit:10;}
</style>
<g id="Ebene_1" class="st0">
</g>
<g id="Ebene_2">
	<rect x="-77.38" y="-2.87" class="st1" width="1998" height="1092.66"/>
</g>
<g id="Ebene_28">
</g>
<g id="Ebene_27">
</g>
<g id="Ebene_3">
	<path class="st2" d="M583.99,167.35"/>
</g>
<g id="Ebene_4">
</g>
<g id="Ebene_5">
</g>
<g id="Ebene_6">
</g>
<g id="Ebene_7">
</g>
<g id="Ebene_8">
	<path class="st3" d="M1727.36,861.82"/>
</g>
<g id="Ebene_9">
	<path class="st3" d="M1710.95,781.41"/>
</g>
<g id="Ebene_10">
	<path class="st3" d="M1710.13,777.31"/>
</g>
<g id="Ebene_11">
</g>
<g id="Ebene_12">
	<path class="st3" d="M1715.05,965.21"/>
</g>
<g id="Ebene_13">
	<path class="st3" d="M1724.08,900.38"/>
</g>
<g id="Ebene_14">
	<path class="st3" d="M1709.31,805.21"/>
</g>
<g id="Ebene_15">
	<path class="st3" d="M1743.77,745.31"/>
</g>
<g id="Ebene_16">
	<path class="st3" d="M1739.67,657.51"/>
</g>
<g id="Ebene_17">
	<path class="st3" d="M1729,592.69"/>
</g>
<g id="Ebene_18">
	<path class="st3" d="M1706.85,543.46"/>
</g>
<g id="Ebene_19">
	<path class="st3" d="M1725.72,462.23"/>
</g>
<g id="Ebene_20">
	<path class="st3" d="M1719.97,386.74"/>
</g>
<g id="Ebene_21">
	<path class="st3" d="M1752.79,307.15"/>
</g>
<g id="Ebene_22">
	<path class="st3" d="M1755.26,218.54"/>
</g>
<g id="Ebene_23">
	<path class="st3" d="M1814.54,132.26"/>
</g>
<g id="Ebene_24">
</g>
<g id="Ebene_25">
	<path class="st3" d="M1744.59,14.23"/>
</g>
<g id="Ebene_26">
	<g>
		<g>
			<g>
				<polygon class="st4" points="411.31,527.07 422.25,520.82 425.54,478.98 505.51,397.43 537.58,392.88 587.66,339.9
					530.55,282.79 485.95,327.91 467.19,308.08 515.69,250.73 437.63,251.97 413.73,268.61 367.62,228.81 236.97,226.03
					216.08,244.69 74.71,242.79 60.3,249.84 62.4,282.52 87.31,307.63 148.6,307.03 193.48,356.94 196.87,429.08 262.02,501.39
					263.82,550.8 276.39,564.57 288.97,576.7 302.37,584.63 345.34,588.38 390.41,627.15 396.99,622.21 397.51,578.39
					381.62,572.92 382.27,541.92 374.07,532.68 357.14,535.8 343.46,550.78 334.08,551.3 324.84,546.87 320.02,538.28
					320.41,531.37 374.98,473.55 385.14,474.59 399.46,486.18 398.29,515.35 				"/>
				<polygon class="st4" points="446.57,530.4 462.47,549.95 476.02,547.6 478.62,531.18 454.91,512.68 440.84,517.37 				"/>
				<polygon class="st4" points="546.13,658.84 494.76,601.51 446.48,603.16 403.72,646.88 420,754.32 476.76,809.58 475.26,965.72
					508.03,996.14 522.81,984.36 521.52,940.23 593.7,867.84 596.05,824.49 644.47,774.77 645.16,698.9 602.01,658.22 				"/>
				<polygon class="st4" points="1106.04,621.58 1104.86,586.2 1011.72,492.11 827.31,483.15 762.08,545.13 761,601.11
					819.4,657.35 872.95,654.92 892.86,667.57 908.47,697.31 910.35,888.09 937.53,914.19 955.83,914.73 1053.51,817.59
					1062.06,745.06 1155.96,639.57 1144.38,622.43 				"/>
				<polygon class="st4" points="1463.48,635.3 1497.99,605.88 1490,574.28 1527.3,534.93 1531.02,483.62 1521.35,472.84
					1517.27,460.57 1533.25,446.81 1535.85,463.54 1561.51,487.71 1578.24,483.25 1577.5,465.77 1556.68,444.95 1573.41,433.43
					1567.83,325.24 1586.79,299.58 1618.76,301.44 1620.62,338.25 1630.29,356.47 1648.88,355.35 1651.85,313.71 1676.76,305.9
					1671.56,270.58 1649.25,270.58 1630.29,243.07 1439.19,247.16 1392.34,274.67 1303.86,266.49 1260.84,232.39 1225.22,219.34
					1090.48,220.4 1064.03,234.51 1027.34,269.08 998.07,240.86 946.92,242.27 903.19,289.18 890.84,283.89 873.2,299.06
					914.31,307.69 982.65,283.62 1000.51,284.78 990.02,313.9 915.08,324.77 885.96,327.1 867.32,350.79 855.29,390.01
					826.55,390.78 812.96,433.11 823.06,454.46 851.79,450.58 911.98,397 957.41,400.88 944.98,437.38 946.15,449.42 960.13,452.13
					975.66,433.5 974.88,415.63 1010.22,389.23 1030.02,420.68 1014.49,420.29 1001.67,442.81 1012.93,462.23 1051.76,461.45
					1049,481.64 1122.01,555.02 1116.56,577.18 1130.73,592.8 1147.81,596.43 1184.13,556.48 1139.45,495.81 1155.43,483.46
					1174.32,474.74 1230.63,485.28 1270.59,532.14 1274.95,578.63 1321.45,626.59 1345.42,604.79 1342.52,573.19 1363.22,549.57
									"/>
				<polygon class="st4" points="719.02,182.86 559.28,184.68 557.83,204.64 578.52,205.73 592.68,234.05 577.07,254.38
					577.43,288.51 605.02,306.29 641.32,266.36 668.55,266.36 731.72,208.64 				"/>
				<polygon class="st4" points="730.27,232.23 720.1,248.57 722.65,264.18 741.52,259.1 752.42,243.85 745.52,224.97 				"/>
				<polygon class="st4" points="795.04,373.38 834.46,371.81 836.7,359.27 843.86,348.52 840.5,324.34 823.71,310 830.43,295.22
					816.32,291.64 793.03,312.69 810.72,336.43 792.58,353.9 				"/>
				<polygon class="st4" points="463.52,203.95 476.99,192.13 493.07,198.51 527.11,161.87 525.45,131.85 496.38,133.74
					448.63,181.73 449.1,203.95 				"/>
				<polygon class="st4" points="1457.7,664.45 1440.05,663.94 1418.31,646.54 1405.01,661.12 1468.96,731.21 1488.65,716.37
					1487.63,697.7 				"/>
				<polygon class="st4" points="1688.8,827.13 1679.41,780.32 1638.39,778.12 1622.77,760.11 1604.96,763.31 1542.72,821.55
					1497.89,827.36 1505.09,906.41 1530.48,912.34 1552.97,891.58 1595.58,894.82 1647.05,937.43 1678.41,938.08 1710.86,911.69
					1728.81,885.31 1719.94,842.27 				"/>
				<polygon class="st4" points="1837.17,899.15 1799.1,897.42 1737.68,959.49 1740.7,972.04 1750,977.88 1759.95,981.34
					1788.72,955.82 1812.29,949.54 1841.06,916.02 				"/>
				<polygon class="st4" points="1118.62,757.93 1113.14,776.97 1096.67,800.86 1098.93,835.09 1110.55,854.46 1133.15,840.57
					1139.29,766.64 1127.02,750.5 				"/>
				<polygon class="st4" points="1623.87,681.45 1596.76,704.11 1622.54,728.55 1686.53,723.66 1698.53,702.33 1677.64,689.45
					1661.64,682.34 				"/>
				<polygon class="st4" points="1559.27,635.36 1543.58,634.52 1527.99,644.88 1528.62,672.08 1551.64,672.7 1580.82,647.91
					1580.82,626.99 1561.16,632.95 				"/>
				<polygon class="st4" points="1590.03,582.11 1573.19,566.63 1558.75,566.95 1551.95,572.18 1556.34,582.01 1579.78,601.88
					1591.28,595.82 				"/>
				<polygon class="st4" points="1601.03,501.82 1616.88,512.18 1631.14,504.02 1629.56,474.39 1642.23,450.86 1644.89,447.14
					1645.79,415.91 1634.81,402.31 1628.42,393.49 1616.18,392.41 1608.62,399.61 1608.8,417.35 1618.34,430.62 1619.44,444.4
					1606.63,463.17 				"/>
				<polygon class="st4" points="1398.27,207.67 1409.12,219.04 1422.04,218.27 1424.63,200.7 1404.73,177.57 1376.7,150.96
					1349.7,150.83 1347.63,179.64 1378.64,207.15 				"/>
				<polygon class="st4" points="1164.98,129.23 1181.85,122.55 1180.26,111.25 1160.05,93.43 1151.22,92.96 1142.47,95.42
					1144.7,106.16 				"/>
				<polygon class="st4" points="934.66,165.34 943.51,159.8 947.62,151.19 944.62,144.47 933.86,139.09 921.77,151.82
					923.82,165.81 				"/>
				<polygon class="st4" points="474.78,231.53 497.17,229.98 502.24,219.57 497.31,209.29 475.06,212.81 				"/>
				<polygon class="st4" points="418.96,239.73 437.15,224.28 434.58,211.72 423.47,202.55 394.18,227.66 406.25,242.31 				"/>
				<polygon class="st4" points="391.6,207.38 392.73,190.64 382.42,180.01 366.17,186.13 365.52,210.92 380.81,218.97 				"/>
				<polygon class="st4" points="349.1,208.02 356.03,197.88 347.98,189.83 325.76,191.44 325.12,204.32 334.46,211.72 				"/>
			</g>
		</g>
	</g>
	<g>
		<polygon class="st3" points="420.63,507.98 431.57,501.73 434.86,459.89 514.83,378.34 546.9,373.79 596.98,320.81 539.87,263.69
			495.27,308.81 476.51,288.99 525.01,231.63 446.95,232.87 423.05,249.51 376.94,209.72 246.29,206.94 225.4,225.6 84.03,223.7
			69.62,230.74 71.71,263.43 96.63,288.54 157.92,287.94 202.8,337.84 206.19,409.99 271.34,482.3 273.14,531.7 285.71,545.48
			298.29,557.61 311.69,565.54 354.66,569.28 399.73,608.06 406.31,603.12 406.83,559.29 390.94,553.82 391.59,522.83
			383.39,513.58 366.45,516.71 352.78,531.68 343.4,532.21 334.16,527.78 329.34,519.18 329.73,512.28 384.3,454.45 394.46,455.49
			408.78,467.09 407.61,496.26 		"/>
		<polygon class="st3" points="455.89,511.31 471.79,530.85 485.34,528.51 487.94,512.09 464.23,493.59 450.16,498.28 		"/>
		<polygon class="st3" points="555.45,639.74 504.08,582.42 455.8,584.06 413.04,627.79 429.32,735.23 486.08,790.49 484.58,946.63
			517.35,977.04 532.13,965.26 530.84,921.14 603.02,848.74 605.37,805.39 653.79,755.67 654.48,679.81 611.33,639.13 		"/>
		<polygon class="st5" points="1115.36,602.48 1114.18,567.11 1021.04,473.02 836.63,464.06 771.4,526.04 770.32,582.01
			828.72,638.25 882.27,635.83 902.18,648.48 917.79,678.21 919.67,869 946.85,895.1 965.15,895.64 1062.83,798.5 1071.38,725.96
			1165.28,620.48 1153.7,603.34 		"/>
		<polygon class="st3" points="1472.8,616.21 1507.31,586.79 1499.32,555.18 1536.62,515.83 1540.34,464.52 1530.67,453.74
			1526.58,441.47 1542.57,427.72 1545.17,444.45 1570.83,468.61 1587.56,464.15 1586.82,446.68 1565.99,425.86 1582.73,414.33
			1577.15,306.14 1596.11,280.49 1628.08,282.35 1629.94,319.15 1639.61,337.37 1658.2,336.26 1661.17,294.62 1686.08,286.81
			1680.88,251.49 1658.57,251.49 1639.61,223.98 1448.51,228.07 1401.66,255.58 1313.18,247.4 1270.16,213.3 1234.54,200.25
			1099.8,201.31 1073.34,215.42 1036.66,249.98 1007.39,221.77 956.24,223.18 912.51,270.09 900.16,264.8 882.52,279.96
			923.63,288.6 991.97,264.52 1009.83,265.69 999.34,294.81 924.4,305.68 895.28,308.01 876.64,331.7 864.61,370.91 835.87,371.69
			822.28,414.01 832.38,435.37 861.11,431.49 921.3,377.9 966.73,381.78 954.3,418.28 955.47,430.32 969.45,433.04 984.98,414.4
			984.2,396.54 1019.53,370.14 1039.34,401.59 1023.81,401.2 1010.99,423.72 1022.25,443.13 1061.08,442.36 1058.32,462.55
			1131.33,535.93 1125.88,558.09 1140.05,573.71 1157.12,577.34 1193.45,537.38 1148.77,476.72 1164.75,464.36 1183.64,455.65
			1239.95,466.18 1279.91,513.04 1284.27,559.54 1330.77,607.49 1354.74,585.7 1351.84,554.09 1372.54,530.48 		"/>
		<polygon class="st6" points="728.34,163.77 568.6,165.58 567.15,185.55 587.84,186.64 602,214.96 586.39,235.29 586.75,269.41
			614.34,287.2 650.64,247.27 677.87,247.27 741.04,189.54 		"/>
		<polygon class="st7" points="739.59,213.14 729.42,229.48 731.97,245.09 750.84,240.01 761.74,224.76 754.84,205.88 		"/>
		<polygon class="st3" points="804.36,354.29 843.78,352.72 846.02,340.18 853.18,329.43 849.82,305.24 833.03,290.91
			839.74,276.13 825.64,272.55 802.35,293.6 820.04,317.34 801.9,334.8 		"/>
		<polygon class="st6" points="472.84,184.85 486.31,173.04 502.39,179.42 536.43,142.78 534.77,112.76 505.7,114.65 457.95,162.63
			458.42,184.85 		"/>
		<polygon class="st3" points="1467.02,645.35 1449.37,644.84 1427.63,627.45 1414.33,642.03 1478.28,712.11 1497.97,697.28
			1496.95,678.61 		"/>
		<polygon class="st3" points="1698.11,808.03 1688.73,761.23 1647.71,759.03 1632.09,741.01 1614.28,744.22 1552.04,802.46
			1507.21,808.26 1514.41,887.32 1539.8,893.25 1562.29,872.49 1604.9,875.73 1656.37,918.34 1687.73,918.99 1720.18,892.6
			1738.13,866.21 1729.26,823.17 		"/>
		<polygon class="st3" points="1846.48,880.06 1808.42,878.33 1746.99,940.4 1750.02,952.94 1759.32,958.78 1769.27,962.24
			1798.04,936.72 1821.61,930.45 1850.38,896.93 		"/>
		<polygon class="st3" points="1127.94,738.83 1122.46,757.88 1105.99,781.77 1108.25,815.99 1119.87,835.36 1142.47,821.48
			1148.61,747.55 1136.34,731.41 		"/>
		<polygon class="st3" points="1633.19,662.35 1606.08,685.02 1631.86,709.46 1695.85,704.57 1707.85,683.24 1686.96,670.35
			1670.96,663.24 		"/>
		<polygon class="st3" points="1568.59,616.26 1552.9,615.43 1537.31,625.78 1537.94,652.98 1560.96,653.61 1590.14,628.82
			1590.14,607.9 1570.47,613.86 		"/>
		<polygon class="st3" points="1599.35,563.02 1582.5,547.54 1568.07,547.85 1561.27,553.08 1565.66,562.91 1589.09,582.79
			1600.6,576.72 		"/>
		<polygon class="st3" points="1610.35,482.73 1626.2,493.09 1640.46,484.92 1638.87,455.29 1651.55,431.76 1654.21,428.04
			1655.11,396.81 1644.13,383.22 1637.74,374.4 1625.5,373.32 1617.94,380.52 1618.12,398.25 1627.66,411.53 1628.76,425.3
			1615.95,444.08 		"/>
		<polygon class="st8" points="1407.59,188.58 1418.44,199.95 1431.36,199.17 1433.95,181.6 1414.05,158.48 1386.02,131.86
			1359.02,131.73 1356.95,160.54 1387.96,188.06 		"/>
		<polygon class="st8" points="1174.3,110.14 1191.17,103.45 1189.58,92.16 1169.37,74.34 1160.54,73.86 1151.79,76.33
			1154.02,87.07 		"/>
		<polygon class="st9" points="943.97,146.25 952.83,140.71 956.94,132.09 953.94,125.37 943.18,120 931.09,132.73 933.14,146.72
			"/>
		<polygon class="st10" points="484.1,212.44 506.49,210.89 511.56,200.47 506.63,190.19 484.38,193.71 		"/>
		<polygon class="st11" points="428.28,220.64 446.47,205.19 443.9,192.63 432.79,183.46 403.49,208.57 415.57,223.21 		"/>
		<polygon class="st7" points="400.92,188.28 402.05,171.54 391.74,160.92 375.49,167.04 374.84,191.83 390.13,199.87 		"/>
		<polygon class="st11" points="358.42,188.93 365.35,178.79 357.3,170.74 335.08,172.35 334.44,185.23 343.78,192.63 		"/>
	</g>
	<path class="st3" d="M1743.77-66.18"/>
	<polygon class="st5" points="1106.8,782.22 1107.93,813.66 1120.29,840.14 1145.25,819.52 1150.46,747.26 1136.57,728.38
		1125.94,738.8 1123.11,758.82 	"/>
	<polygon class="st5" points="1058.46,443.77 1123.87,438.01 1187.62,456.09 1165.93,462.78 1148.21,478.22 1196.43,540
		1158.22,580.6 1138.96,576.11 1123.88,557.4 1132.62,539.83 1058.09,464.91 	"/>
	<polygon class="st5" points="833.48,437 822.69,416.84 864.65,399.49 886.92,383.79 914.82,385.2 861.37,430.44 	"/>
	<polygon class="st5" points="1280.38,512.48 1372.12,531.65 1353.64,557.32 1356.38,588.82 1329.67,611.75 1280.04,559.04 	"/>
	<polygon class="st5" points="414.86,636.84 481.18,678.86 519.15,743.16 488.54,755.75 524.4,800.75 521.71,856.17 483.45,883.8
		482.72,804.05 484.72,790.05 428.51,738 	"/>
	<polygon class="st5" points="202.79,335.21 269.74,352.13 269.23,386.92 276.19,450.85 271.55,486.01 204.53,410.9 	"/>
	<polygon class="st5" points="1397.03,258.05 1367.3,324.72 1446.05,366.54 1512.38,334.52 1518.26,272.43 1551.59,234.85
		1541.51,226.8 1450.03,228.18 1402.68,252.63 	"/>
</g>
<g id="Ebene_29">
	<polygon class="st7" points="378.01,205.65 398.14,222.5 424.4,244.46 442.15,228.83 532.95,227.91 478.5,292.15 379.3,303.15
		333.04,271.57 329.45,246.24 347.06,217.49 	"/>
	<path class="st12" d="M429.95,246.49"/>
	<path class="st12" d="M543.7,258.1"/>
</g>
<g id="Ebene_30">
	<polygon class="st11" points="1316.38,241.72 1185.34,282.41 1117.07,251.38 1076.37,224.82 1071.79,212.48 1098.23,198.32
		1235.35,195.57 1271.77,208.98 	"/>
</g>
</svg>
